<svg width="53" height="53" viewBox="0 0 53 53" fill="none" xmlns="http://www.w3.org/2000/svg">
<path d="M7.25702 7.33276H46.257C46.8317 7.33276 47.3828 7.56104 47.7891 7.96737C48.1954 8.37369 48.4237 8.92479 48.4237 9.49943V44.1661C48.4237 44.7407 48.1954 45.2918 47.7891 45.6982C47.3828 46.1045 46.8317 46.3328 46.257 46.3328H7.25702C6.68239 46.3328 6.13129 46.1045 5.72496 45.6982C5.31863 45.2918 5.09035 44.7407 5.09035 44.1661V9.49943C5.09035 8.92479 5.31863 8.37369 5.72496 7.96737C6.13129 7.56104 6.68239 7.33276 7.25702 7.33276ZM44.0904 24.6661H9.42369V41.9994H44.0904V24.6661ZM44.0904 20.3328V11.6661H9.42369V20.3328H44.0904ZM20.257 13.8328H24.5904V18.1661H20.257V13.8328ZM11.5904 13.8328H15.9237V18.1661H11.5904V13.8328Z" fill="url(#paint0_linear_1_65)"/>
<defs>
<linearGradient id="paint0_linear_1_65" x1="5.09036" y1="26.8328" x2="48.4237" y2="26.8328" gradientUnits="userSpaceOnUse">
<stop stop-color="#33BAFA"/>
<stop offset="0.542857" stop-color="#4B9CFF"/>
<stop offset="1" stop-color="#4B79FE"/>
</linearGradient>
</defs>
</svg>
