<svg width="53" height="53" viewBox="0 0 53 53" fill="none" xmlns="http://www.w3.org/2000/svg">
<path d="M46.257 29.5237V44.1661H48.4237V48.4994H5.09037V44.1661H7.25704V29.5237C5.92318 28.6334 4.82975 27.4276 4.07382 26.0132C3.31788 24.5989 2.92282 23.0198 2.92371 21.4161C2.92371 19.6242 3.40904 17.8974 4.29521 16.4262L10.1712 6.24941C10.3614 5.92004 10.6349 5.64653 10.9642 5.45637C11.2936 5.2662 11.6672 5.16609 12.0475 5.16608H41.4687C41.849 5.16609 42.2226 5.2662 42.552 5.45637C42.8814 5.64653 43.1549 5.92004 43.345 6.24941L49.1994 16.3937C50.4919 18.5406 50.9074 21.1031 50.3594 23.5484C49.8114 25.9937 48.3422 28.1338 46.257 29.5237ZM41.9237 31.1054C40.434 31.2725 38.9258 31.0936 37.5165 30.5825C36.1073 30.0714 34.835 29.242 33.7987 28.1587C32.8892 29.1101 31.7963 29.8672 30.586 30.3845C29.3757 30.9017 28.0732 31.1683 26.757 31.1682C25.4412 31.1689 24.1388 30.9029 22.9286 30.3864C21.7184 29.87 20.6253 29.1136 19.7154 28.1631C18.6789 29.2459 17.4065 30.0749 15.9973 30.5857C14.588 31.0964 13.0799 31.275 11.5904 31.1076V44.1661H41.9237V31.1076V31.1054ZM13.2999 9.49941L8.02837 18.6276C7.51612 19.8932 7.50075 21.3056 7.98533 22.5821C8.4699 23.8586 9.41868 24.905 10.6418 25.5119C11.8649 26.1188 13.272 26.2414 14.5816 25.8552C15.8912 25.4689 17.0067 24.6024 17.7047 23.4289C18.4305 21.6154 20.998 21.6154 21.726 23.4289C22.1275 24.4351 22.8215 25.2979 23.7183 25.9056C24.6152 26.5134 25.6737 26.8383 26.757 26.8383C27.8404 26.8383 28.8989 26.5134 29.7957 25.9056C30.6926 25.2979 31.3866 24.4351 31.788 23.4289C32.5139 21.6154 35.0814 21.6154 35.8094 23.4289C36.0906 24.1211 36.5119 24.7475 37.0468 25.269C37.5818 25.7905 38.2189 26.1956 38.918 26.459C39.6171 26.7224 40.3631 26.8384 41.1092 26.7996C41.8552 26.7607 42.5852 26.568 43.2532 26.2335C43.9212 25.899 44.5128 25.4299 44.9907 24.8557C45.4687 24.2816 45.8227 23.6147 46.0306 22.8972C46.2384 22.1796 46.2956 21.4268 46.1984 20.686C46.1013 19.9453 45.852 19.2327 45.4662 18.5929L40.212 9.49941H13.302H13.2999Z" fill="url(#paint0_linear_1_82)"/>
<defs>
<linearGradient id="paint0_linear_1_82" x1="2.92371" y1="26.8328" x2="50.5952" y2="26.8328" gradientUnits="userSpaceOnUse">
<stop stop-color="#33BAFA"/>
<stop offset="0.542857" stop-color="#4B9CFF"/>
<stop offset="1" stop-color="#4B79FE"/>
</linearGradient>
</defs>
</svg>
