<svg width="53" height="53" viewBox="0 0 53 53" fill="none" xmlns="http://www.w3.org/2000/svg">
<g clip-path="url(#clip0_1_68)">
<path d="M7.25703 7.3327H46.257C46.8317 7.3327 47.3828 7.56098 47.7891 7.9673C48.1954 8.37363 48.4237 8.92473 48.4237 9.49937V44.166C48.4237 44.7407 48.1954 45.2918 47.7891 45.6981C47.3828 46.1044 46.8317 46.3327 46.257 46.3327H7.25703C6.68239 46.3327 6.13129 46.1044 5.72496 45.6981C5.31864 45.2918 5.09036 44.7407 5.09036 44.166V9.49937C5.09036 8.92473 5.31864 8.37363 5.72496 7.9673C6.13129 7.56098 6.68239 7.3327 7.25703 7.3327ZM9.4237 11.666V41.9994H44.0904V11.666H9.4237ZM26.757 33.3327H39.757V37.666H26.757V33.3327ZM19.5355 26.8327L13.406 20.7054L16.4719 17.6395L25.6629 26.8327L16.4719 36.0259L13.406 32.96L19.5355 26.8327Z" fill="url(#paint0_linear_1_68)"/>
</g>
<defs>
<linearGradient id="paint0_linear_1_68" x1="5.09036" y1="26.8327" x2="48.4237" y2="26.8327" gradientUnits="userSpaceOnUse">
<stop stop-color="#33BAFA"/>
<stop offset="0.542857" stop-color="#4B9CFF"/>
<stop offset="1" stop-color="#4B79FE"/>
</linearGradient>
<clipPath id="clip0_1_68">
<rect width="52" height="52" fill="white" transform="translate(0.757019 0.832703)"/>
</clipPath>
</defs>
</svg>
