<svg width="71" height="10" viewBox="0 0 71 10" fill="none" xmlns="http://www.w3.org/2000/svg">
<path fill-rule="evenodd" clip-rule="evenodd" d="M8.44483 1.7995L7.63165 0.986328L6.81848 1.7995L0.607483 8.0105L2.23383 9.63685L7.63165 4.23902L13.0295 9.63685L13.2071 9.45919L13.3848 9.63685L18.7826 4.23902L24.1804 9.63685L24.364 9.45327L24.5476 9.63685L29.9454 4.23902L35.3432 9.63685L35.5209 9.45919L35.6986 9.63685L41.0964 4.23902L46.4942 9.63685L46.6601 9.47092L46.8261 9.63685L52.2239 4.23902L57.6217 9.63685L57.7994 9.4592L57.977 9.63685L63.3748 4.23902L68.7727 9.63685L70.399 8.0105L64.188 1.7995L63.3748 0.986328L62.5617 1.7995L57.7994 6.5618L53.0371 1.7995L52.2239 0.986328L51.4107 1.7995L46.6601 6.55008L41.9096 1.7995L41.0964 0.986328L40.2832 1.7995L35.5209 6.56181L30.7586 1.7995L29.9454 0.986328L29.1322 1.7995L24.364 6.56773L19.5958 1.7995L18.7826 0.986328L17.9694 1.7995L13.2071 6.56181L8.44483 1.7995Z" fill="url(#paint0_linear_1_106)"/>
<defs>
<linearGradient id="paint0_linear_1_106" x1="0.607483" y1="5.31159" x2="70.399" y2="5.31158" gradientUnits="userSpaceOnUse">
<stop stop-color="#33BAFA"/>
<stop offset="0.542857" stop-color="#4B9CFF"/>
<stop offset="1" stop-color="#4B79FE"/>
</linearGradient>
</defs>
</svg>
